# xmcd
#
# Track frame offsets: 
#        150
#        13215
#        24665
#        35248
#        45425
#        57550
#        73620
#        88728
#        98985
#        109817
#        119668
#        130098
#        139135
#        150583
#
# Disc length: 2177 seconds
#
# Revision: 5
# Processed by: cddbd v1.5.2PL0 Copyright (c) Steve Scherf et al.
# Submitted via: ExactAudioCopyFreeDBPlugin 1.0
#
DISCID=ca087f0e
DTITLE=Various Artist - Country Classics [CD 2)
DYEAR=1900
DGENRE=Country
TTITLE0=Freddy Fender - Silver Wings
TTITLE1=Skeeter Davis - Crying Time
TTITLE2=Johnny Tillotson - Send Me The Pillow You Dream On
TTITLE3=Dolly Parton - Release Me
TTITLE4=Johnny Cash - You're The Nearest Thing To Heaven
TTITLE5=Billie Joe Spears - I Fall To Pieces
TTITLE6=Kenny Rogers - For The Good Times
TTITLE7=Frankie Laine - I Believe
TTITLE8=Patsy Cline - I Can't Forget
TTITLE9=Sandy Posey - What A Woman Won't Do
TTITLE10=Faron Young - If You Ain't Lovin'
TTITLE11=Roy Drusky - Peel Me A Nanner
TTITLE12=Willie Nelson - Touch Me
TTITLE13=Charlie Rich - I Take It On Home
EXTD=ID3G: 2
EXTT0=
EXTT1=
EXTT2=
EXTT3=
EXTT4=
EXTT5=
EXTT6=
EXTT7=
EXTT8=
EXTT9=
EXTT10=
EXTT11=
EXTT12=
EXTT13=
PLAYORDER=
